<?xml version="1.0" encoding="UTF-8"?>
<svg width="1600" height="1200" xmlns="http://www.w3.org/2000/svg" viewBox="0 0 1600 1200"> <title>question mark</title> <metadata id="metadata7">image/svg+xmlhelp question mark lemon green yellow icon</metadata> <g> <title>Layer 1</title> <g id="svg_1"> <g fill="#b5ff1b" fill-rule="nonzero" stroke="#00c100" stroke-width="13" stroke-miterlimit="4" stroke-dashoffset="0" display="inline" id="text2816"> <path fill="#ff0000" stroke="#bf0000" stroke-width="13" stroke-miterlimit="4" d="m32.500065,346.108307c-0.000061,-48.424072 15.6581,-97.486618 46.974545,-147.188034c31.316238,-49.698853 77.007385,-90.86039 137.073456,-123.485001c60.065857,-32.622444 130.142975,-48.934118 210.231079,-48.935305c74.439972,0.001089 140.15213,13.636759 197.138519,40.906794c56.984375,27.272217 101.008362,64.355949 132.067932,111.251198c31.05957,46.897232 46.58844,97.871246 46.590393,152.923309c-0.001953,43.328064 -8.858093,81.30307 -26.568359,113.927124c-17.712219,32.624023 -38.760864,60.78653 -63.145752,84.489594c-24.386902,23.703003 -68.152283,63.591431 -131.298035,119.66156c-17.455566,15.802063 -31.44458,29.692566 -41.968872,41.67157c-10.524231,11.979004 -18.353882,22.938049 -23.486633,32.878967c-5.134857,9.939087 -9.114807,19.880066 -11.937836,29.819092c-2.82309,9.940979 -7.059631,27.399475 -12.70578,52.375549c-9.754364,53.013977 -40.300659,79.52002 -91.638947,79.52002c-26.696686,0 -49.156799,-8.664001 -67.380341,-25.996033c-18.225555,-17.33197 -27.338318,-43.072998 -27.338318,-77.227051c0,-42.817993 6.672699,-79.90155 20.022064,-111.250549c13.347321,-31.349121 31.059601,-58.875061 53.134735,-82.578125c22.075165,-23.702942 51.851563,-51.86554 89.329193,-84.489532c32.856049,-28.544067 56.599396,-50.080566 71.231903,-64.609589c14.630554,-14.527008 26.951355,-30.712524 36.964417,-48.552521c10.008972,-17.840057 15.015442,-37.212036 15.015442,-58.112061c0,-40.778046 -15.274109,-75.185089 -45.81842,-103.2211c-30.548279,-28.035812 -69.950775,-42.053635 -118.207306,-42.054611c-56.473114,0.000977 -98.057007,14.146286 -124.751678,42.436127c-26.696716,28.291031 -49.285172,69.96257 -67.767334,125.014572c-17.455429,57.602051 -50.568558,86.401093 -99.339798,86.401093c-28.749626,0 -53.007034,-10.067535 -72.771999,-30.202484c-19.765377,-20.13504 -29.648071,-41.924561 -29.648029,-65.374573l-0.000221,0l0,0l-0.000019,0zm375.796871,838.016693c-31.316223,0 -58.654541,-10.067627 -82.012909,-30.202515c-23.360352,-20.13501 -35.039551,-48.297485 -35.039551,-84.489624c0,-32.114014 11.29425,-59.130005 33.884705,-81.050049c22.588379,-21.917969 50.311676,-32.877014 83.167755,-32.877014c32.342804,0 59.552795,10.959045 81.62796,32.877014c22.075165,21.920044 33.112701,48.936035 33.112701,81.050049c0,35.682129 -11.550842,63.71814 -34.652557,84.108154c-23.103729,20.387939 -49.798431,30.583984 -80.088104,30.583984l0,0z" id="path2821"/> </g> <path fill="#ff5656" d="m48.67181,317.779633c-4.012329,-2.865875 21.325336,-129.262543 121.206623,-199.591179c76.606827,-53.940552 129.62294,-63.715775 177.442123,-74.721035c36.796936,-8.468647 96.734161,-11.933029 142.024597,-7.672131c0,0 -136.111298,30.114525 -178.502319,44.351883c-43.740601,14.690598 -77.66037,41.02977 -119.252258,74.017456c-41.591858,32.987717 -142.918636,163.615219 -142.918636,163.615219l-0.00013,-0.000214z" id="path3634"/> <path transform="rotate(-18.952451705932617 375.6193542480467,1048.559814453125) " fill="#ff5656" d="m312.157043,1126.097534c0,0 -48.075958,-84.991699 25.547302,-131.223206c66.380981,-58.939453 116.797729,9.907532 116.797729,9.907532c0,0 -83.678284,-46.616394 -105.266235,7.685791c-54.092224,21.741089 -43.078796,91.629883 -37.078796,113.629883z" id="path3636"/> </g> </g>
</svg>